<svg xmlns="http://www.w3.org/2000/svg" version="1.1" xmlns:xlink="http://www.w3.org/1999/xlink" xmlns:svgjs="http://svgjs.dev/svgjs" width="100%" height="100%" viewBox="0 0 1000 600"><rect width="1000" height="600" x="0" y="0" fill="#00214d"/><g><circle r="166.66666666666666" cx="222.22225443522134" cy="244.44447157118097" fill="#329832" transform="matrix(2.25000013732911,0,0,2.25000013732911,0,-250.00002975464122)"/><path d="M169.40655863033066 180.41686122237513L169.40655863033066 180.41686122237513Q177.39639880171632 175.2354389858907 186.56185578306062 172.33993832432589Q195.72731276440496 169.44443766276106 204.50089747576303 169.44443766276106L204.50089747576303 169.44443766276106Q205.61120224072397 169.44443766276106 206.93921382234393 169.53152038942466Q208.2672254039639 169.59683243442237 210.77085379554248 169.74922720608367L210.77085379554248 169.74922720608367L185.8651939697518 287.00611865862624L163.28899708221252 287.00611865862624L186.0175887414131 180.56925599403644Q175.34995472512165 184.96693369054844 169.71134817365328 193.7405184019065Q164.07274162218494 202.51410311326458 164.07274162218494 214.749226209501L164.07274162218494 214.749226209501Q164.07274162218494 217.7318095977294 164.46461389217114 219.90887776431947Q164.85648616215738 222.10771661257547 165.79262547379113 224.15416068917017L165.79262547379113 224.15416068917017Q166.09741501711375 224.78551045748134 166.18449774377734 225.0032172741403Q166.27158047044094 225.2426947724652 166.27158047044094 225.3950895441265L166.27158047044094 225.3950895441265Q157.47622507741696 225.3950895441265 153.49219033255707 221.71584434258926Q149.4863849060313 218.03659914105202 149.4863849060313 210.19915374132768L149.4863849060313 210.19915374132768Q149.4863849060313 202.36170834160328 154.73311918751344 194.524262941879Q160.00162415066146 186.68681754215464 169.40655863033066 180.41686122237513ZM252.63587463907004 256.91903659635113L252.63587463907004 256.91903659635113Q257.33834187890466 256.91903659635113 260.4733200387943 255.50394228806755Q263.6082981986841 254.08884797978396 265.9595318186014 251.1062645915556L265.9595318186014 251.1062645915556L272.68667245336485 221.32397207260306L292.91163572098685 221.47636684426436L280.0669335381052 280.4313727955241Q275.51686106993196 301.7448701464412 266.1119265902627 310.60553758446287Q256.70699211059355 319.4444343408187 239.94356722784977 319.4444343408187L239.94356722784977 319.4444343408187Q230.05967775153076 319.4444343408187 224.0945109750739 313.34864347436644Q218.1511148802829 307.23108192624824 218.1511148802829 297.82614744657906L218.1511148802829 297.82614744657906Q218.1511148802829 288.72600251023243 223.48493188842866 282.5431289171165Q228.79697821490848 276.3384846423348 237.26577338294396 276.3384846423348L237.26577338294396 276.3384846423348Q245.73456855097945 276.3384846423348 249.1743362541918 278.929195760577Q252.63587463907004 281.5199068788192 252.63587463907004 286.85372388696493L252.63587463907004 286.85372388696493Q252.63587463907004 288.0946527419213 252.39639714074514 289.74922454852975Q252.1569196424202 291.40379635513824 251.6997353274363 293.12368020674444L251.6997353274363 293.12368020674444Q249.02194148253048 290.9248413584884 246.99726808760167 289.98870204685466Q244.950824011007 289.05256273522093 242.29480084776708 289.05256273522093L242.29480084776708 289.05256273522093Q237.41816815460527 289.05256273522093 234.37027272137914 292.49233043843327Q231.322377288153 295.9320981416456 231.322377288153 300.9611256064687L231.322377288153 300.9611256064687Q231.322377288153 305.66359284630335 233.97840045139293 308.6461762345318Q236.63442361463282 311.6069889410943 241.18449608280613 311.6069889410943L241.18449608280613 311.6069889410943Q247.6068471742469 311.6069889410943 251.06838555912518 307.14399919958464Q254.50815326233752 302.6810094580749 256.85938688225485 292.33993566677196L256.85938688225485 292.33993566677196L263.1293432020343 264.2775269994256Q258.2744811905384 266.93355016266554 252.78826941073135 268.4357271976127Q247.3020576309243 269.91613355089396 244.01468469937325 269.91613355089396L244.01468469937325 269.91613355089396Q227.40365458829083 269.91613355089396 218.84777669359173 259.66214248625465Q210.3136694805586 249.3863807399494 210.3136694805586 229.7927672406385L210.3136694805586 229.7927672406385Q210.3136694805586 218.18899391271333 214.29770422541847 207.15125830810155Q218.3035096519442 196.09175202182382 225.50960528335744 187.77535162544967L225.50960528335744 187.77535162544967Q233.19465591142048 178.8493721424303 243.47041765772573 174.14690490259568Q253.7244087223651 169.44443766276106 265.8071370469401 169.44443766276106L265.8071370469401 169.44443766276106Q278.9566287731443 169.44443766276106 286.96823962619584 175.01773216923175Q294.9580797975815 180.56925599403644 294.9580797975815 190.45314547035548L294.9580797975815 190.45314547035548Q294.9580797975815 197.5068463301074 292.1278911810144 201.18609153164465Q289.31947324611315 204.86533673318195 283.9856562379674 204.86533673318195L283.9856562379674 204.86533673318195Q280.69828330641633 204.86533673318195 277.7810119631856 203.77680264988686Q274.8855113016208 202.6664978849259 273.16562745001465 200.79421926165844L273.16562745001465 200.79421926165844Q275.8216506132545 200.01047472168602 277.9551774165128 195.7869624785012Q280.0669335381052 191.54167955365057 280.0669335381052 187.94951707877686L280.0669335381052 187.94951707877686Q280.0669335381052 182.92048961395375 277.2367449215381 179.87259418072762Q274.4283269866369 176.8029280658356 269.24690475015245 176.8029280658356L269.24690475015245 176.8029280658356Q262.4979934337232 176.8029280658356 255.6837700722962 182.37622257230623Q248.86954671086917 187.94951707877686 243.53572970272344 197.81163587343002L243.53572970272344 197.81163587343002Q239.15982268787732 205.49668650149306 236.80858906796004 214.20495916785342Q234.45735544804273 222.8914611525479 234.45735544804273 231.0554667772608L234.45735544804273 231.0554667772608Q234.45735544804273 243.1164244201699 239.22513473287503 250.0177305082605Q244.01468469937325 256.91903659635113 252.63587463907004 256.91903659635113Z " fill="#ffd700" transform="matrix(2.25000013732911,0,0,2.25000013732911,0,-250.00002975464122)"/><path d="MNaN 244.44443766276106 " fill="#ffd700" transform="matrix(2.25000013732911,0,0,2.25000013732911,0,-250.00002975464122)"/></g></svg>